<?xml version="1.0" encoding="UTF-8" standalone="no"?><!DOCTYPE svg PUBLIC "-//W3C//DTD SVG 1.1//EN" "http://www.w3.org/Graphics/SVG/1.1/DTD/svg11.dtd"><svg width="24px" height="24px" version="1.1" xmlns="http://www.w3.org/2000/svg" xmlns:xlink="http://www.w3.org/1999/xlink" xml:space="preserve" xmlns:serif="http://www.serif.com/" style="fill-rule:evenodd;clip-rule:evenodd;stroke-linejoin:round;stroke-miterlimit:2;"><path d="M9.967,1.655c0.925,0.925 0.534,2.82 -0.874,4.228c-1.408,1.408 -3.303,1.8 -4.229,0.874c-0.926,-0.926 -0.534,-2.82 0.874,-4.228c1.408,-1.408 3.303,-1.8 4.229,-0.874Z" style="fill:#fff;"/><path d="M22.883,12.419c0.926,0.926 0.535,2.82 -0.873,4.228c-1.409,1.408 -3.303,1.8 -4.229,0.874c-0.926,-0.925 -0.534,-2.82 0.874,-4.228c1.408,-1.408 3.303,-1.8 4.228,-0.874Z" style="fill:#fff;"/><path d="M17.137,1.295c1.034,1.034 0.596,3.15 -0.976,4.722c-1.573,1.572 -3.689,2.01 -4.722,0.976c-1.034,-1.034 -0.597,-3.15 0.976,-4.722c1.572,-1.573 3.688,-2.01 4.722,-0.976Z" style="fill:#fff;"/><path d="M22.32,5.202c1.033,1.034 0.596,3.149 -0.976,4.722c-1.573,1.572 -3.689,2.01 -4.723,0.976c-1.033,-1.034 -0.596,-3.15 0.976,-4.722c1.573,-1.573 3.689,-2.01 4.723,-0.976Z" style="fill:#fff;"/><path d="M12.558,23.598c3.652,-0.997 2.402,-4.021 2.402,-7.037c0,-3.015 0.786,-4.851 -0.92,-6.558c-1.707,-1.706 -4.317,-0.721 -6.16,-0.681c-2.799,0.061 -5.522,-1.724 -7.199,1.758c-1.563,3.244 2.995,4.672 5.319,6.996c2.324,2.324 3.388,6.387 6.558,5.522Z" style="fill:#fff;"/></svg>