<?xml version="1.0" encoding="UTF-8" standalone="no"?><!DOCTYPE svg PUBLIC "-//W3C//DTD SVG 1.1//EN" "http://www.w3.org/Graphics/SVG/1.1/DTD/svg11.dtd"><svg width="24px" height="24px" version="1.1" xmlns="http://www.w3.org/2000/svg" xmlns:xlink="http://www.w3.org/1999/xlink" xml:space="preserve" xmlns:serif="http://www.serif.com/" style="fill-rule:evenodd;clip-rule:evenodd;stroke-linejoin:round;stroke-miterlimit:2;"><path d="M23.953,4.57c-0.899,0.396 -1.85,0.657 -2.825,0.775c1.026,-0.617 1.795,-1.584 2.163,-2.723c-0.951,0.555 -2.005,0.959 -3.127,1.184c-0.93,-0.994 -2.232,-1.559 -3.594,-1.559c-2.699,-0 -4.92,2.22 -4.92,4.92c0,0.377 0.044,0.753 0.13,1.121c-4.09,-0.193 -7.713,-2.158 -10.14,-5.126c-0.441,0.75 -0.671,1.605 -0.666,2.475c-0,1.71 0.87,3.213 2.188,4.096c-0.781,-0.025 -1.545,-0.236 -2.228,-0.616l-0,0.06c-0.001,2.334 1.658,4.364 3.946,4.827c-0.722,0.193 -1.478,0.222 -2.212,0.085c0.646,2 2.503,3.378 4.604,3.417c-1.74,1.366 -3.89,2.107 -6.102,2.105c-0.39,-0 -0.779,-0.023 -1.17,-0.067c2.255,1.444 4.879,2.211 7.557,2.209c9.053,-0 13.998,-7.496 13.998,-13.985c0,-0.21 0,-0.42 -0.015,-0.63c0.966,-0.695 1.799,-1.558 2.46,-2.548l-0.047,-0.02Z" style="fill:#000;fill-rule:nonzero;"/></svg>
